<svg width="1024" height="1024" viewBox="0 0 1024 1024" fill="none" xmlns="http://www.w3.org/2000/svg">
<path d="M511.747 145C704.12 145 811.951 299.911 816.001 432.547V787.931C816.001 840.58 777.02 878.548 724.37 879.561C718.295 880.067 722.345 879.561 668.684 879.561C615.022 879.561 587.684 859.818 568.953 850.705C550.728 841.593 535.541 836.024 513.772 836.023C492.004 836.023 471.248 846.149 456.061 854.249C432.267 865.893 409.992 879.561 355.317 879.561H302.161C248.499 879.56 216.606 848.174 209.013 808.181L208 802.105V412.297L211.037 385.973C234.831 248.78 375.567 145 511.747 145ZM513.267 371.291C465.173 371.291 414.042 410.272 414.042 473.553V756.543C414.042 769.199 427.71 781.349 442.392 775.78C465.679 767.68 485.929 760.594 512.254 760.594C536.047 760.594 556.297 764.644 583.128 774.769C598.315 780.843 611.478 770.212 611.478 756.543V473.553C611.478 424.447 568.953 371.291 513.267 371.291Z" fill="#0E6B4E"/>
</svg>
